# xmcd CD database file
#
# Track frame offsets:
#	150
#	10290
#	25090
#	34790
#	45442
#	58115
#	69582
#	84565
#	95702
#	113782
#	128482
#	143550
#
# Disc length: 2191 seconds
#
# Revision: 4
# Processed by: cddbd v1.5.1PL2 Copyright (c) Steve Scherf et al.
# Submitted via: CDex 1.51
#
DISCID=97088d0c
DTITLE=??????? - ????????????
DYEAR=1974
DGENRE=New Age
TTITLE0=???????
TTITLE1=?????????
TTITLE2=??????
TTITLE3=???
TTITLE4=????
TTITLE5=??????
TTITLE6=12?????
TTITLE7=???????
TTITLE8=??????
TTITLE9=?????
TTITLE10=????
TTITLE11=???????? ????????
EXTD=YEAR: 1974
EXTT0=
EXTT1=
EXTT2=
EXTT3=
EXTT4=
EXTT5=
EXTT6=
EXTT7=
EXTT8=
EXTT9=
EXTT10=
EXTT11=
PLAYORDER=
